<svg width="36" height="516" viewBox="0 0 36 516" fill="none" xmlns="http://www.w3.org/2000/svg">
<rect x="-1" y="1" width="2" height="478" rx="1" transform="matrix(-1 0 0 1 18 18)" stroke="#EE6916" stroke-width="2"/>
<circle cx="18" cy="62" r="6" fill="white" stroke="#EE6916" stroke-width="2"/>
<g filter="url(#filter0_d_20_205)">
<path d="M10 107L18 115L26 107" stroke="#222222" stroke-width="4" stroke-linecap="round" stroke-linejoin="round" shape-rendering="crispEdges"/>
</g>
<circle cx="18" cy="160" r="6" fill="white" stroke="#EE6916" stroke-width="2"/>
<g filter="url(#filter1_d_20_205)">
<path d="M10 205L18 213L26 205" stroke="#222222" stroke-width="4" stroke-linecap="round" stroke-linejoin="round" shape-rendering="crispEdges"/>
</g>
<circle cx="18" cy="258" r="6" fill="white" stroke="#EE6916" stroke-width="2"/>
<g filter="url(#filter2_d_20_205)">
<path d="M10 303L18 311L26 303" stroke="#222222" stroke-width="4" stroke-linecap="round" stroke-linejoin="round" shape-rendering="crispEdges"/>
</g>
<circle cx="18" cy="356" r="6" fill="white" stroke="#EE6916" stroke-width="2"/>
<g filter="url(#filter3_d_20_205)">
<path d="M10 401L18 409L26 401" stroke="#222222" stroke-width="4" stroke-linecap="round" stroke-linejoin="round" shape-rendering="crispEdges"/>
</g>
<circle cx="18" cy="454" r="6" fill="white" stroke="#EE6916" stroke-width="2"/>
<rect width="36" height="36" rx="18" fill="#00458C"/>
<path d="M23.3167 24.6L21.6667 17.0833L24.875 13.875C26.25 12.5 26.7083 10.6667 26.25 9.75C25.3333 9.29167 23.5 9.75 22.125 11.125L18.9167 14.3333L11.4 12.6833C10.9417 12.5917 10.575 12.775 10.3917 13.1417L10.1167 13.6C9.93333 14.0583 10.025 14.5167 10.3917 14.7917L15.25 18L13.4167 20.75H10.6667L9.75 21.6667L12.5 23.5L14.3333 26.25L15.25 25.3333V22.5833L18 20.75L21.2083 25.6083C21.4833 25.975 21.9417 26.0667 22.4 25.8833L22.8583 25.7C23.225 25.425 23.4083 25.0583 23.3167 24.6Z" stroke="white" stroke-width="2" stroke-linecap="round" stroke-linejoin="round"/>
<rect y="480" width="36" height="36" rx="18" fill="#0054A6"/>
<path d="M23.5 489.75H12.5C11.4874 489.75 10.6666 490.571 10.6666 491.583V502.583C10.6666 503.596 11.4874 504.417 12.5 504.417H23.5C24.5125 504.417 25.3333 503.596 25.3333 502.583V491.583C25.3333 490.571 24.5125 489.75 23.5 489.75Z" stroke="white" stroke-width="2" stroke-linecap="round" stroke-linejoin="round"/>
<path d="M10.6666 497.083H25.3333" stroke="white" stroke-width="2" stroke-linecap="round" stroke-linejoin="round"/>
<path d="M18 489.75V497.083" stroke="white" stroke-width="2" stroke-linecap="round" stroke-linejoin="round"/>
<path d="M14.3333 504.417L12.5 507.167" stroke="white" stroke-width="2" stroke-linecap="round" stroke-linejoin="round"/>
<path d="M23.5 507.167L21.6666 504.417" stroke="white" stroke-width="2" stroke-linecap="round" stroke-linejoin="round"/>
<path d="M14.3334 500.75H14.3434" stroke="white" stroke-width="2" stroke-linecap="round" stroke-linejoin="round"/>
<path d="M21.6666 500.75H21.6766" stroke="white" stroke-width="2" stroke-linecap="round" stroke-linejoin="round"/>
<defs>
<filter id="filter0_d_20_205" x="8" y="105" width="20" height="14" filterUnits="userSpaceOnUse" color-interpolation-filters="sRGB">
<feFlood flood-opacity="0" result="BackgroundImageFix"/>
<feColorMatrix in="SourceAlpha" type="matrix" values="0 0 0 0 0 0 0 0 0 0 0 0 0 0 0 0 0 0 127 0" result="hardAlpha"/>
<feOffset dy="2"/>
<feComposite in2="hardAlpha" operator="out"/>
<feColorMatrix type="matrix" values="0 0 0 0 1 0 0 0 0 1 0 0 0 0 1 0 0 0 1 0"/>
<feBlend mode="normal" in2="BackgroundImageFix" result="effect1_dropShadow_20_205"/>
<feBlend mode="normal" in="SourceGraphic" in2="effect1_dropShadow_20_205" result="shape"/>
</filter>
<filter id="filter1_d_20_205" x="8" y="203" width="20" height="14" filterUnits="userSpaceOnUse" color-interpolation-filters="sRGB">
<feFlood flood-opacity="0" result="BackgroundImageFix"/>
<feColorMatrix in="SourceAlpha" type="matrix" values="0 0 0 0 0 0 0 0 0 0 0 0 0 0 0 0 0 0 127 0" result="hardAlpha"/>
<feOffset dy="2"/>
<feComposite in2="hardAlpha" operator="out"/>
<feColorMatrix type="matrix" values="0 0 0 0 1 0 0 0 0 1 0 0 0 0 1 0 0 0 1 0"/>
<feBlend mode="normal" in2="BackgroundImageFix" result="effect1_dropShadow_20_205"/>
<feBlend mode="normal" in="SourceGraphic" in2="effect1_dropShadow_20_205" result="shape"/>
</filter>
<filter id="filter2_d_20_205" x="8" y="301" width="20" height="14" filterUnits="userSpaceOnUse" color-interpolation-filters="sRGB">
<feFlood flood-opacity="0" result="BackgroundImageFix"/>
<feColorMatrix in="SourceAlpha" type="matrix" values="0 0 0 0 0 0 0 0 0 0 0 0 0 0 0 0 0 0 127 0" result="hardAlpha"/>
<feOffset dy="2"/>
<feComposite in2="hardAlpha" operator="out"/>
<feColorMatrix type="matrix" values="0 0 0 0 1 0 0 0 0 1 0 0 0 0 1 0 0 0 1 0"/>
<feBlend mode="normal" in2="BackgroundImageFix" result="effect1_dropShadow_20_205"/>
<feBlend mode="normal" in="SourceGraphic" in2="effect1_dropShadow_20_205" result="shape"/>
</filter>
<filter id="filter3_d_20_205" x="8" y="399" width="20" height="14" filterUnits="userSpaceOnUse" color-interpolation-filters="sRGB">
<feFlood flood-opacity="0" result="BackgroundImageFix"/>
<feColorMatrix in="SourceAlpha" type="matrix" values="0 0 0 0 0 0 0 0 0 0 0 0 0 0 0 0 0 0 127 0" result="hardAlpha"/>
<feOffset dy="2"/>
<feComposite in2="hardAlpha" operator="out"/>
<feColorMatrix type="matrix" values="0 0 0 0 1 0 0 0 0 1 0 0 0 0 1 0 0 0 1 0"/>
<feBlend mode="normal" in2="BackgroundImageFix" result="effect1_dropShadow_20_205"/>
<feBlend mode="normal" in="SourceGraphic" in2="effect1_dropShadow_20_205" result="shape"/>
</filter>
</defs>
</svg>
