<svg width="148" height="516" viewBox="0 0 148 516" fill="none" xmlns="http://www.w3.org/2000/svg">
<rect x="16" y="20" width="116" height="476" rx="58" stroke="#EE6916" stroke-width="4"/>
<circle cx="132" cy="69" r="6" fill="white" stroke="#EE6916" stroke-width="2"/>
<circle cx="16" cy="69" r="6" fill="white" stroke="#EE6916" stroke-width="2"/>
<circle cx="132" cy="123" r="6" fill="white" stroke="#EE6916" stroke-width="2"/>
<circle cx="16" cy="123" r="6" fill="white" stroke="#EE6916" stroke-width="2"/>
<circle cx="132" cy="177" r="6" fill="white" stroke="#EE6916" stroke-width="2"/>
<circle cx="16" cy="177" r="6" fill="white" stroke="#EE6916" stroke-width="2"/>
<circle cx="132" cy="231" r="6" fill="white" stroke="#EE6916" stroke-width="2"/>
<circle cx="132" cy="285" r="6" fill="white" stroke="#EE6916" stroke-width="2"/>
<circle cx="132" cy="339" r="6" fill="white" stroke="#EE6916" stroke-width="2"/>
<circle cx="132" cy="393" r="6" fill="white" stroke="#EE6916" stroke-width="2"/>
<circle cx="132" cy="447" r="6" fill="white" stroke="#EE6916" stroke-width="2"/>
<rect x="55" width="36" height="36" rx="18" fill="#00458C"/>
<path d="M78.3167 24.6L76.6667 17.0833L79.875 13.875C81.25 12.5 81.7083 10.6667 81.25 9.75C80.3333 9.29167 78.5 9.75 77.125 11.125L73.9167 14.3333L66.4 12.6833C65.9417 12.5917 65.575 12.775 65.3917 13.1417L65.1167 13.6C64.9333 14.0583 65.025 14.5167 65.3917 14.7917L70.25 18L68.4167 20.75H65.6667L64.75 21.6667L67.5 23.5L69.3333 26.25L70.25 25.3333V22.5833L73 20.75L76.2083 25.6083C76.4833 25.975 76.9417 26.0667 77.4 25.8833L77.8583 25.7C78.225 25.425 78.4083 25.0583 78.3167 24.6Z" stroke="white" stroke-width="2" stroke-linecap="round" stroke-linejoin="round"/>
<rect x="55" y="480" width="36" height="36" rx="18" fill="#0054A6"/>
<path d="M78.5 489.75H67.5C66.4874 489.75 65.6666 490.571 65.6666 491.583V502.583C65.6666 503.596 66.4874 504.417 67.5 504.417H78.5C79.5125 504.417 80.3333 503.596 80.3333 502.583V491.583C80.3333 490.571 79.5125 489.75 78.5 489.75Z" stroke="white" stroke-width="2" stroke-linecap="round" stroke-linejoin="round"/>
<path d="M65.6666 497.083H80.3333" stroke="white" stroke-width="2" stroke-linecap="round" stroke-linejoin="round"/>
<path d="M73 489.75V497.083" stroke="white" stroke-width="2" stroke-linecap="round" stroke-linejoin="round"/>
<path d="M69.3333 504.417L67.5 507.167" stroke="white" stroke-width="2" stroke-linecap="round" stroke-linejoin="round"/>
<path d="M78.5 507.167L76.6666 504.417" stroke="white" stroke-width="2" stroke-linecap="round" stroke-linejoin="round"/>
<path d="M69.3334 500.75H69.3434" stroke="white" stroke-width="2" stroke-linecap="round" stroke-linejoin="round"/>
<path d="M76.6666 500.75H76.6766" stroke="white" stroke-width="2" stroke-linecap="round" stroke-linejoin="round"/>
<g filter="url(#filter0_d_14_812)">
<path d="M124 258L132 266L140 258" stroke="#222222" stroke-width="4" stroke-linecap="round" stroke-linejoin="round" shape-rendering="crispEdges"/>
</g>
<g filter="url(#filter1_d_14_812)">
<path d="M113.799 469.142V480.456H125.113" stroke="#222222" stroke-width="4" stroke-linecap="round" stroke-linejoin="round" shape-rendering="crispEdges"/>
</g>
<g filter="url(#filter2_d_14_812)">
<path d="M106.142 39.4559H117.456V28.1422" stroke="#222222" stroke-width="4" stroke-linecap="round" stroke-linejoin="round" shape-rendering="crispEdges"/>
</g>
<g filter="url(#filter3_d_14_812)">
<path d="M24 266L16 258L8 266" stroke="#222222" stroke-width="4" stroke-linecap="round" stroke-linejoin="round" shape-rendering="crispEdges"/>
</g>
<g filter="url(#filter4_d_14_812)">
<path d="M36.4559 45.1127V33.7989H25.1422" stroke="#222222" stroke-width="4" stroke-linecap="round" stroke-linejoin="round" shape-rendering="crispEdges"/>
</g>
<g filter="url(#filter5_d_14_812)">
<path d="M36.2195 470.719L24.998 469.277L23.5562 480.499" stroke="#222222" stroke-width="4" stroke-linecap="round" stroke-linejoin="round" shape-rendering="crispEdges"/>
</g>
<defs>
<filter id="filter0_d_14_812" x="122" y="256" width="20" height="14" filterUnits="userSpaceOnUse" color-interpolation-filters="sRGB">
<feFlood flood-opacity="0" result="BackgroundImageFix"/>
<feColorMatrix in="SourceAlpha" type="matrix" values="0 0 0 0 0 0 0 0 0 0 0 0 0 0 0 0 0 0 127 0" result="hardAlpha"/>
<feOffset dy="2"/>
<feComposite in2="hardAlpha" operator="out"/>
<feColorMatrix type="matrix" values="0 0 0 0 1 0 0 0 0 1 0 0 0 0 1 0 0 0 1 0"/>
<feBlend mode="normal" in2="BackgroundImageFix" result="effect1_dropShadow_14_812"/>
<feBlend mode="normal" in="SourceGraphic" in2="effect1_dropShadow_14_812" result="shape"/>
</filter>
<filter id="filter1_d_14_812" x="109.799" y="467.142" width="17.3137" height="17.3137" filterUnits="userSpaceOnUse" color-interpolation-filters="sRGB">
<feFlood flood-opacity="0" result="BackgroundImageFix"/>
<feColorMatrix in="SourceAlpha" type="matrix" values="0 0 0 0 0 0 0 0 0 0 0 0 0 0 0 0 0 0 127 0" result="hardAlpha"/>
<feOffset dx="-2" dy="2"/>
<feComposite in2="hardAlpha" operator="out"/>
<feColorMatrix type="matrix" values="0 0 0 0 1 0 0 0 0 1 0 0 0 0 1 0 0 0 1 0"/>
<feBlend mode="normal" in2="BackgroundImageFix" result="effect1_dropShadow_14_812"/>
<feBlend mode="normal" in="SourceGraphic" in2="effect1_dropShadow_14_812" result="shape"/>
</filter>
<filter id="filter2_d_14_812" x="104.142" y="26.1422" width="17.3137" height="17.3137" filterUnits="userSpaceOnUse" color-interpolation-filters="sRGB">
<feFlood flood-opacity="0" result="BackgroundImageFix"/>
<feColorMatrix in="SourceAlpha" type="matrix" values="0 0 0 0 0 0 0 0 0 0 0 0 0 0 0 0 0 0 127 0" result="hardAlpha"/>
<feOffset dx="2" dy="2"/>
<feComposite in2="hardAlpha" operator="out"/>
<feColorMatrix type="matrix" values="0 0 0 0 1 0 0 0 0 1 0 0 0 0 1 0 0 0 1 0"/>
<feBlend mode="normal" in2="BackgroundImageFix" result="effect1_dropShadow_14_812"/>
<feBlend mode="normal" in="SourceGraphic" in2="effect1_dropShadow_14_812" result="shape"/>
</filter>
<filter id="filter3_d_14_812" x="6" y="254" width="20" height="14" filterUnits="userSpaceOnUse" color-interpolation-filters="sRGB">
<feFlood flood-opacity="0" result="BackgroundImageFix"/>
<feColorMatrix in="SourceAlpha" type="matrix" values="0 0 0 0 0 0 0 0 0 0 0 0 0 0 0 0 0 0 127 0" result="hardAlpha"/>
<feOffset dy="-2"/>
<feComposite in2="hardAlpha" operator="out"/>
<feColorMatrix type="matrix" values="0 0 0 0 1 0 0 0 0 1 0 0 0 0 1 0 0 0 1 0"/>
<feBlend mode="normal" in2="BackgroundImageFix" result="effect1_dropShadow_14_812"/>
<feBlend mode="normal" in="SourceGraphic" in2="effect1_dropShadow_14_812" result="shape"/>
</filter>
<filter id="filter4_d_14_812" x="23.1422" y="29.799" width="17.3137" height="17.3137" filterUnits="userSpaceOnUse" color-interpolation-filters="sRGB">
<feFlood flood-opacity="0" result="BackgroundImageFix"/>
<feColorMatrix in="SourceAlpha" type="matrix" values="0 0 0 0 0 0 0 0 0 0 0 0 0 0 0 0 0 0 127 0" result="hardAlpha"/>
<feOffset dx="2" dy="-2"/>
<feComposite in2="hardAlpha" operator="out"/>
<feColorMatrix type="matrix" values="0 0 0 0 1 0 0 0 0 1 0 0 0 0 1 0 0 0 1 0"/>
<feBlend mode="normal" in2="BackgroundImageFix" result="effect1_dropShadow_14_812"/>
<feBlend mode="normal" in="SourceGraphic" in2="effect1_dropShadow_14_812" result="shape"/>
</filter>
<filter id="filter5_d_14_812" x="19.556" y="465.277" width="18.6637" height="17.2219" filterUnits="userSpaceOnUse" color-interpolation-filters="sRGB">
<feFlood flood-opacity="0" result="BackgroundImageFix"/>
<feColorMatrix in="SourceAlpha" type="matrix" values="0 0 0 0 0 0 0 0 0 0 0 0 0 0 0 0 0 0 127 0" result="hardAlpha"/>
<feOffset dx="-2" dy="-2"/>
<feComposite in2="hardAlpha" operator="out"/>
<feColorMatrix type="matrix" values="0 0 0 0 1 0 0 0 0 1 0 0 0 0 1 0 0 0 1 0"/>
<feBlend mode="normal" in2="BackgroundImageFix" result="effect1_dropShadow_14_812"/>
<feBlend mode="normal" in="SourceGraphic" in2="effect1_dropShadow_14_812" result="shape"/>
</filter>
</defs>
</svg>
