<svg width="36" height="360" viewBox="0 0 36 360" fill="none" xmlns="http://www.w3.org/2000/svg">
<rect width="36" height="36" rx="18" fill="#00458C"/>
<path d="M23.3167 24.6L21.6667 17.0833L24.875 13.875C26.25 12.5 26.7083 10.6667 26.25 9.75C25.3333 9.29167 23.5 9.75 22.125 11.125L18.9167 14.3333L11.4 12.6833C10.9417 12.5917 10.575 12.775 10.3917 13.1417L10.1167 13.6C9.93333 14.0583 10.025 14.5167 10.3917 14.7917L15.25 18L13.4167 20.75H10.6667L9.75 21.6667L12.5 23.5L14.3333 26.25L15.25 25.3333V22.5833L18 20.75L21.2083 25.6083C21.4833 25.975 21.9417 26.0667 22.4 25.8833L22.8583 25.7C23.225 25.425 23.4083 25.0583 23.3167 24.6Z" stroke="white" stroke-width="2" stroke-linecap="round" stroke-linejoin="round"/>
<rect x="16.5" y="36" width="3" height="13" fill="#EE6916"/>
<circle cx="18" cy="54" r="4.5" fill="white" stroke="#EE6916"/>
<rect x="16.5" y="59" width="3" height="13" fill="#EE6916"/>
<rect x="16.5" y="72" width="3" height="13" fill="#EE6916"/>
<circle cx="18" cy="90" r="4.5" fill="white" stroke="#EE6916"/>
<rect x="16.5" y="95" width="3" height="13" fill="#EE6916"/>
<rect x="16.5" y="108" width="3" height="13" fill="#EE6916"/>
<circle cx="18" cy="126" r="4.5" fill="white" stroke="#EE6916"/>
<rect x="16.5" y="131" width="3" height="13" fill="#EE6916"/>
<rect x="16.5" y="144" width="3" height="13" fill="#EE6916"/>
<circle cx="18" cy="162" r="4.5" fill="white" stroke="#EE6916"/>
<rect x="16.5" y="167" width="3" height="13" fill="#EE6916"/>
<rect x="16.5" y="180" width="3" height="13" fill="#EE6916"/>
<circle cx="18" cy="198" r="4.5" fill="white" stroke="#EE6916"/>
<rect x="16.5" y="203" width="3" height="13" fill="#EE6916"/>
<rect x="16.5" y="216" width="3" height="13" fill="#EE6916"/>
<circle cx="18" cy="234" r="4.5" fill="white" stroke="#EE6916"/>
<rect x="16.5" y="239" width="3" height="13" fill="#EE6916"/>
<rect x="16.5" y="252" width="3" height="13" fill="#EE6916"/>
<circle cx="18" cy="270" r="4.5" fill="white" stroke="#EE6916"/>
<rect x="16.5" y="275" width="3" height="13" fill="#EE6916"/>
<rect x="16.5" y="288" width="3" height="13" fill="#EE6916"/>
<circle cx="18" cy="306" r="4.5" fill="white" stroke="#EE6916"/>
<rect x="16.5" y="311" width="3" height="13" fill="#EE6916"/>
<g clip-path="url(#clip0_22_529)">
<path d="M32 338.6C32 347.088 22.3067 355.928 19.0518 358.659C18.7485 358.88 18.3794 359 18 359C17.6206 359 17.2515 358.88 16.9482 358.659C13.6933 355.928 4 347.088 4 338.6C4 334.993 5.475 331.534 8.10051 328.983C10.726 326.433 14.287 325 18 325C21.713 325 25.274 326.433 27.8995 328.983C30.525 331.534 32 334.993 32 338.6Z" fill="#D81E37" stroke="#D81E37" stroke-width="2" stroke-linecap="round" stroke-linejoin="round"/>
<path d="M16.5586 338.428V339.531H14.0098V341.309H17.4277V342.451H9.23438V341.309H12.623V339.531H10.1719V335.078H16.5V336.191H11.5781V338.428H16.5586ZM22.9541 335.361V336.465H21.2159C21.2452 337.314 21.8116 338.223 23.2764 338.594L22.6319 339.707C21.626 339.443 20.9375 338.887 20.5323 338.184C20.1368 338.955 19.4483 339.556 18.4131 339.834L17.7393 338.75C19.1993 338.359 19.7803 337.383 19.8096 336.465H18.0811V335.361H19.8096V334.453H21.2256V335.361H22.9541ZM24.9756 334.473V336.631H26.1377V337.803H24.9756V339.98H23.5694V334.473H24.9756ZM24.9756 340.312V343.447H23.5694V341.426H18.8916V340.312H24.9756Z" fill="white"/>
</g>
<defs>
<clipPath id="clip0_22_529">
<rect y="324" width="36" height="36" rx="4" fill="white"/>
</clipPath>
</defs>
</svg>
