<svg width="36" height="784" viewBox="0 0 36 784" fill="none" xmlns="http://www.w3.org/2000/svg">
<rect x="-1" y="1" width="2" height="748" transform="matrix(-1 0 0 1 18 18)" stroke="#EE6916" stroke-width="2"/>
<circle cx="18" cy="63" r="6" fill="white" stroke="#EE6916" stroke-width="2"/>
<g filter="url(#filter0_d_20_205)">
<path d="M10 106L18 114L26 106" stroke="#222222" stroke-width="4" stroke-linecap="round" stroke-linejoin="round" shape-rendering="crispEdges"/>
</g>
<circle cx="18" cy="157" r="6" fill="white" stroke="#EE6916" stroke-width="2"/>
<g filter="url(#filter1_d_20_205)">
<path d="M10 200L18 208L26 200" stroke="#222222" stroke-width="4" stroke-linecap="round" stroke-linejoin="round" shape-rendering="crispEdges"/>
</g>
<circle cx="18" cy="251" r="6" fill="white" stroke="#EE6916" stroke-width="2"/>
<g filter="url(#filter2_d_20_205)">
<path d="M10 294L18 302L26 294" stroke="#222222" stroke-width="4" stroke-linecap="round" stroke-linejoin="round" shape-rendering="crispEdges"/>
</g>
<circle cx="18" cy="345" r="6" fill="white" stroke="#EE6916" stroke-width="2"/>
<g filter="url(#filter3_d_20_205)">
<path d="M10 388L18 396L26 388" stroke="#222222" stroke-width="4" stroke-linecap="round" stroke-linejoin="round" shape-rendering="crispEdges"/>
</g>
<circle cx="18" cy="439" r="6" fill="white" stroke="#EE6916" stroke-width="2"/>
<g filter="url(#filter4_d_20_205)">
<path d="M10 482L18 490L26 482" stroke="#222222" stroke-width="4" stroke-linecap="round" stroke-linejoin="round" shape-rendering="crispEdges"/>
</g>
<circle cx="18" cy="533" r="6" fill="white" stroke="#EE6916" stroke-width="2"/>
<g filter="url(#filter5_d_20_205)">
<path d="M10 576L18 584L26 576" stroke="#222222" stroke-width="4" stroke-linecap="round" stroke-linejoin="round" shape-rendering="crispEdges"/>
</g>
<circle cx="18" cy="627" r="6" fill="white" stroke="#EE6916" stroke-width="2"/>
<g filter="url(#filter6_d_20_205)">
<path d="M10 670L18 678L26 670" stroke="#222222" stroke-width="4" stroke-linecap="round" stroke-linejoin="round" shape-rendering="crispEdges"/>
</g>
<circle cx="18" cy="721" r="6" fill="white" stroke="#EE6916" stroke-width="2"/>
<rect width="36" height="36" rx="18" fill="#00458C"/>
<path d="M23.3167 24.6L21.6667 17.0833L24.875 13.875C26.25 12.5 26.7083 10.6667 26.25 9.75C25.3333 9.29167 23.5 9.75 22.125 11.125L18.9167 14.3333L11.4 12.6833C10.9417 12.5917 10.575 12.775 10.3917 13.1417L10.1167 13.6C9.93333 14.0583 10.025 14.5167 10.3917 14.7917L15.25 18L13.4167 20.75H10.6667L9.75 21.6667L12.5 23.5L14.3333 26.25L15.25 25.3333V22.5833L18 20.75L21.2083 25.6083C21.4833 25.975 21.9417 26.0667 22.4 25.8833L22.8583 25.7C23.225 25.425 23.4083 25.0583 23.3167 24.6Z" stroke="white" stroke-width="2" stroke-linecap="round" stroke-linejoin="round"/>
<rect y="748" width="36" height="36" rx="18" fill="url(#paint0_linear_20_205)"/>
<path d="M10.6667 760.5L8.83337 761.417" stroke="white" stroke-width="2" stroke-linecap="round" stroke-linejoin="round"/>
<path d="M16.1666 760.5H19.8333" stroke="white" stroke-width="2" stroke-linecap="round" stroke-linejoin="round"/>
<path d="M27.1667 761.417L25.3334 760.5" stroke="white" stroke-width="2" stroke-linecap="round" stroke-linejoin="round"/>
<path d="M23.5 757.75H12.5C11.4874 757.75 10.6666 758.571 10.6666 759.583V770.583C10.6666 771.596 11.4874 772.417 12.5 772.417H23.5C24.5125 772.417 25.3333 771.596 25.3333 770.583V759.583C25.3333 758.571 24.5125 757.75 23.5 757.75Z" stroke="white" stroke-width="2" stroke-linecap="round" stroke-linejoin="round"/>
<path d="M10.6666 765.083H25.3333" stroke="white" stroke-width="2" stroke-linecap="round" stroke-linejoin="round"/>
<path d="M14.3334 768.75H14.3417" stroke="white" stroke-width="2" stroke-linecap="round" stroke-linejoin="round"/>
<path d="M21.6666 768.75H21.675" stroke="white" stroke-width="2" stroke-linecap="round" stroke-linejoin="round"/>
<path d="M12.5 772.417V774.25" stroke="white" stroke-width="2" stroke-linecap="round" stroke-linejoin="round"/>
<path d="M23.5 774.25V772.417" stroke="white" stroke-width="2" stroke-linecap="round" stroke-linejoin="round"/>
<defs>
<filter id="filter0_d_20_205" x="8" y="104" width="20" height="14" filterUnits="userSpaceOnUse" color-interpolation-filters="sRGB">
<feFlood flood-opacity="0" result="BackgroundImageFix"/>
<feColorMatrix in="SourceAlpha" type="matrix" values="0 0 0 0 0 0 0 0 0 0 0 0 0 0 0 0 0 0 127 0" result="hardAlpha"/>
<feOffset dy="2"/>
<feComposite in2="hardAlpha" operator="out"/>
<feColorMatrix type="matrix" values="0 0 0 0 1 0 0 0 0 1 0 0 0 0 1 0 0 0 1 0"/>
<feBlend mode="normal" in2="BackgroundImageFix" result="effect1_dropShadow_20_205"/>
<feBlend mode="normal" in="SourceGraphic" in2="effect1_dropShadow_20_205" result="shape"/>
</filter>
<filter id="filter1_d_20_205" x="8" y="198" width="20" height="14" filterUnits="userSpaceOnUse" color-interpolation-filters="sRGB">
<feFlood flood-opacity="0" result="BackgroundImageFix"/>
<feColorMatrix in="SourceAlpha" type="matrix" values="0 0 0 0 0 0 0 0 0 0 0 0 0 0 0 0 0 0 127 0" result="hardAlpha"/>
<feOffset dy="2"/>
<feComposite in2="hardAlpha" operator="out"/>
<feColorMatrix type="matrix" values="0 0 0 0 1 0 0 0 0 1 0 0 0 0 1 0 0 0 1 0"/>
<feBlend mode="normal" in2="BackgroundImageFix" result="effect1_dropShadow_20_205"/>
<feBlend mode="normal" in="SourceGraphic" in2="effect1_dropShadow_20_205" result="shape"/>
</filter>
<filter id="filter2_d_20_205" x="8" y="292" width="20" height="14" filterUnits="userSpaceOnUse" color-interpolation-filters="sRGB">
<feFlood flood-opacity="0" result="BackgroundImageFix"/>
<feColorMatrix in="SourceAlpha" type="matrix" values="0 0 0 0 0 0 0 0 0 0 0 0 0 0 0 0 0 0 127 0" result="hardAlpha"/>
<feOffset dy="2"/>
<feComposite in2="hardAlpha" operator="out"/>
<feColorMatrix type="matrix" values="0 0 0 0 1 0 0 0 0 1 0 0 0 0 1 0 0 0 1 0"/>
<feBlend mode="normal" in2="BackgroundImageFix" result="effect1_dropShadow_20_205"/>
<feBlend mode="normal" in="SourceGraphic" in2="effect1_dropShadow_20_205" result="shape"/>
</filter>
<filter id="filter3_d_20_205" x="8" y="386" width="20" height="14" filterUnits="userSpaceOnUse" color-interpolation-filters="sRGB">
<feFlood flood-opacity="0" result="BackgroundImageFix"/>
<feColorMatrix in="SourceAlpha" type="matrix" values="0 0 0 0 0 0 0 0 0 0 0 0 0 0 0 0 0 0 127 0" result="hardAlpha"/>
<feOffset dy="2"/>
<feComposite in2="hardAlpha" operator="out"/>
<feColorMatrix type="matrix" values="0 0 0 0 1 0 0 0 0 1 0 0 0 0 1 0 0 0 1 0"/>
<feBlend mode="normal" in2="BackgroundImageFix" result="effect1_dropShadow_20_205"/>
<feBlend mode="normal" in="SourceGraphic" in2="effect1_dropShadow_20_205" result="shape"/>
</filter>
<filter id="filter4_d_20_205" x="8" y="480" width="20" height="14" filterUnits="userSpaceOnUse" color-interpolation-filters="sRGB">
<feFlood flood-opacity="0" result="BackgroundImageFix"/>
<feColorMatrix in="SourceAlpha" type="matrix" values="0 0 0 0 0 0 0 0 0 0 0 0 0 0 0 0 0 0 127 0" result="hardAlpha"/>
<feOffset dy="2"/>
<feComposite in2="hardAlpha" operator="out"/>
<feColorMatrix type="matrix" values="0 0 0 0 1 0 0 0 0 1 0 0 0 0 1 0 0 0 1 0"/>
<feBlend mode="normal" in2="BackgroundImageFix" result="effect1_dropShadow_20_205"/>
<feBlend mode="normal" in="SourceGraphic" in2="effect1_dropShadow_20_205" result="shape"/>
</filter>
<filter id="filter5_d_20_205" x="8" y="574" width="20" height="14" filterUnits="userSpaceOnUse" color-interpolation-filters="sRGB">
<feFlood flood-opacity="0" result="BackgroundImageFix"/>
<feColorMatrix in="SourceAlpha" type="matrix" values="0 0 0 0 0 0 0 0 0 0 0 0 0 0 0 0 0 0 127 0" result="hardAlpha"/>
<feOffset dy="2"/>
<feComposite in2="hardAlpha" operator="out"/>
<feColorMatrix type="matrix" values="0 0 0 0 1 0 0 0 0 1 0 0 0 0 1 0 0 0 1 0"/>
<feBlend mode="normal" in2="BackgroundImageFix" result="effect1_dropShadow_20_205"/>
<feBlend mode="normal" in="SourceGraphic" in2="effect1_dropShadow_20_205" result="shape"/>
</filter>
<filter id="filter6_d_20_205" x="8" y="668" width="20" height="14" filterUnits="userSpaceOnUse" color-interpolation-filters="sRGB">
<feFlood flood-opacity="0" result="BackgroundImageFix"/>
<feColorMatrix in="SourceAlpha" type="matrix" values="0 0 0 0 0 0 0 0 0 0 0 0 0 0 0 0 0 0 127 0" result="hardAlpha"/>
<feOffset dy="2"/>
<feComposite in2="hardAlpha" operator="out"/>
<feColorMatrix type="matrix" values="0 0 0 0 1 0 0 0 0 1 0 0 0 0 1 0 0 0 1 0"/>
<feBlend mode="normal" in2="BackgroundImageFix" result="effect1_dropShadow_20_205"/>
<feBlend mode="normal" in="SourceGraphic" in2="effect1_dropShadow_20_205" result="shape"/>
</filter>
<linearGradient id="paint0_linear_20_205" x1="18" y1="748" x2="18" y2="784" gradientUnits="userSpaceOnUse">
<stop stop-color="#E41D39"/>
<stop offset="1" stop-color="#EE6916"/>
</linearGradient>
</defs>
</svg>
