<svg width="148" height="516" viewBox="0 0 148 516" fill="none" xmlns="http://www.w3.org/2000/svg">
<rect x="16" y="20" width="116" height="476" rx="58" stroke="#EE6916" stroke-width="4"/>
<circle cx="132" cy="69" r="6" fill="white" stroke="#EE6916" stroke-width="2"/>
<circle cx="16" cy="69" r="6" fill="white" stroke="#EE6916" stroke-width="2"/>
<circle cx="132" cy="123" r="6" fill="white" stroke="#EE6916" stroke-width="2"/>
<circle cx="16" cy="123" r="6" fill="white" stroke="#EE6916" stroke-width="2"/>
<circle cx="132" cy="177" r="6" fill="white" stroke="#EE6916" stroke-width="2"/>
<circle cx="16" cy="177" r="6" fill="white" stroke="#EE6916" stroke-width="2"/>
<circle cx="132" cy="231" r="6" fill="white" stroke="#EE6916" stroke-width="2"/>
<circle cx="132" cy="285" r="6" fill="white" stroke="#EE6916" stroke-width="2"/>
<circle cx="132" cy="339" r="6" fill="white" stroke="#EE6916" stroke-width="2"/>
<circle cx="132" cy="393" r="6" fill="white" stroke="#EE6916" stroke-width="2"/>
<circle cx="132" cy="447" r="6" fill="white" stroke="#EE6916" stroke-width="2"/>
<rect x="56" width="36" height="36" rx="18" fill="#00458C"/>
<path d="M79.3167 24.6L77.6667 17.0833L80.875 13.875C82.25 12.5 82.7083 10.6667 82.25 9.75C81.3333 9.29167 79.5 9.75 78.125 11.125L74.9167 14.3333L67.4 12.6833C66.9417 12.5917 66.575 12.775 66.3917 13.1417L66.1167 13.6C65.9333 14.0583 66.025 14.5167 66.3917 14.7917L71.25 18L69.4167 20.75H66.6667L65.75 21.6667L68.5 23.5L70.3333 26.25L71.25 25.3333V22.5833L74 20.75L77.2083 25.6083C77.4833 25.975 77.9417 26.0667 78.4 25.8833L78.8583 25.7C79.225 25.425 79.4083 25.0583 79.3167 24.6Z" stroke="white" stroke-width="2" stroke-linecap="round" stroke-linejoin="round"/>
<rect x="56" y="480" width="36" height="36" rx="18" fill="#0054A6"/>
<path d="M79.5001 489.75H68.5001C67.4876 489.75 66.6667 490.571 66.6667 491.583V502.583C66.6667 503.596 67.4876 504.417 68.5001 504.417H79.5001C80.5126 504.417 81.3334 503.596 81.3334 502.583V491.583C81.3334 490.571 80.5126 489.75 79.5001 489.75Z" stroke="white" stroke-width="2" stroke-linecap="round" stroke-linejoin="round"/>
<path d="M66.6667 497.083H81.3334" stroke="white" stroke-width="2" stroke-linecap="round" stroke-linejoin="round"/>
<path d="M74 489.75V497.083" stroke="white" stroke-width="2" stroke-linecap="round" stroke-linejoin="round"/>
<path d="M70.3333 504.417L68.5 507.167" stroke="white" stroke-width="2" stroke-linecap="round" stroke-linejoin="round"/>
<path d="M79.5001 507.167L77.6667 504.417" stroke="white" stroke-width="2" stroke-linecap="round" stroke-linejoin="round"/>
<path d="M70.3333 500.75H70.3433" stroke="white" stroke-width="2" stroke-linecap="round" stroke-linejoin="round"/>
<path d="M77.6667 500.75H77.6767" stroke="white" stroke-width="2" stroke-linecap="round" stroke-linejoin="round"/>
<g filter="url(#filter0_d_21_277)">
<path d="M124 258L132 266L140 258" stroke="#222222" stroke-width="4" stroke-linecap="round" stroke-linejoin="round" shape-rendering="crispEdges"/>
</g>
<g filter="url(#filter1_d_21_277)">
<path d="M113.799 469.142V480.456H125.113" stroke="#222222" stroke-width="4" stroke-linecap="round" stroke-linejoin="round" shape-rendering="crispEdges"/>
</g>
<g filter="url(#filter2_d_21_277)">
<path d="M106.142 39.4558H117.456V28.1421" stroke="#222222" stroke-width="4" stroke-linecap="round" stroke-linejoin="round" shape-rendering="crispEdges"/>
</g>
<g filter="url(#filter3_d_21_277)">
<path d="M24 266L16 258L8 266" stroke="#222222" stroke-width="4" stroke-linecap="round" stroke-linejoin="round" shape-rendering="crispEdges"/>
</g>
<g filter="url(#filter4_d_21_277)">
<path d="M36.4559 45.1127V33.7989H25.1422" stroke="#222222" stroke-width="4" stroke-linecap="round" stroke-linejoin="round" shape-rendering="crispEdges"/>
</g>
<g filter="url(#filter5_d_21_277)">
<path d="M36.2196 470.719L24.9981 469.277L23.5564 480.499" stroke="#222222" stroke-width="4" stroke-linecap="round" stroke-linejoin="round" shape-rendering="crispEdges"/>
</g>
<defs>
<filter id="filter0_d_21_277" x="122" y="256" width="20" height="14" filterUnits="userSpaceOnUse" color-interpolation-filters="sRGB">
<feFlood flood-opacity="0" result="BackgroundImageFix"/>
<feColorMatrix in="SourceAlpha" type="matrix" values="0 0 0 0 0 0 0 0 0 0 0 0 0 0 0 0 0 0 127 0" result="hardAlpha"/>
<feOffset dy="2"/>
<feComposite in2="hardAlpha" operator="out"/>
<feColorMatrix type="matrix" values="0 0 0 0 1 0 0 0 0 1 0 0 0 0 1 0 0 0 1 0"/>
<feBlend mode="normal" in2="BackgroundImageFix" result="effect1_dropShadow_21_277"/>
<feBlend mode="normal" in="SourceGraphic" in2="effect1_dropShadow_21_277" result="shape"/>
</filter>
<filter id="filter1_d_21_277" x="109.799" y="467.142" width="17.3137" height="17.3135" filterUnits="userSpaceOnUse" color-interpolation-filters="sRGB">
<feFlood flood-opacity="0" result="BackgroundImageFix"/>
<feColorMatrix in="SourceAlpha" type="matrix" values="0 0 0 0 0 0 0 0 0 0 0 0 0 0 0 0 0 0 127 0" result="hardAlpha"/>
<feOffset dx="-2" dy="2"/>
<feComposite in2="hardAlpha" operator="out"/>
<feColorMatrix type="matrix" values="0 0 0 0 1 0 0 0 0 1 0 0 0 0 1 0 0 0 1 0"/>
<feBlend mode="normal" in2="BackgroundImageFix" result="effect1_dropShadow_21_277"/>
<feBlend mode="normal" in="SourceGraphic" in2="effect1_dropShadow_21_277" result="shape"/>
</filter>
<filter id="filter2_d_21_277" x="104.142" y="26.1421" width="17.3137" height="17.3137" filterUnits="userSpaceOnUse" color-interpolation-filters="sRGB">
<feFlood flood-opacity="0" result="BackgroundImageFix"/>
<feColorMatrix in="SourceAlpha" type="matrix" values="0 0 0 0 0 0 0 0 0 0 0 0 0 0 0 0 0 0 127 0" result="hardAlpha"/>
<feOffset dx="2" dy="2"/>
<feComposite in2="hardAlpha" operator="out"/>
<feColorMatrix type="matrix" values="0 0 0 0 1 0 0 0 0 1 0 0 0 0 1 0 0 0 1 0"/>
<feBlend mode="normal" in2="BackgroundImageFix" result="effect1_dropShadow_21_277"/>
<feBlend mode="normal" in="SourceGraphic" in2="effect1_dropShadow_21_277" result="shape"/>
</filter>
<filter id="filter3_d_21_277" x="6" y="254" width="20" height="14" filterUnits="userSpaceOnUse" color-interpolation-filters="sRGB">
<feFlood flood-opacity="0" result="BackgroundImageFix"/>
<feColorMatrix in="SourceAlpha" type="matrix" values="0 0 0 0 0 0 0 0 0 0 0 0 0 0 0 0 0 0 127 0" result="hardAlpha"/>
<feOffset dy="-2"/>
<feComposite in2="hardAlpha" operator="out"/>
<feColorMatrix type="matrix" values="0 0 0 0 1 0 0 0 0 1 0 0 0 0 1 0 0 0 1 0"/>
<feBlend mode="normal" in2="BackgroundImageFix" result="effect1_dropShadow_21_277"/>
<feBlend mode="normal" in="SourceGraphic" in2="effect1_dropShadow_21_277" result="shape"/>
</filter>
<filter id="filter4_d_21_277" x="23.1423" y="29.7988" width="17.3135" height="17.3137" filterUnits="userSpaceOnUse" color-interpolation-filters="sRGB">
<feFlood flood-opacity="0" result="BackgroundImageFix"/>
<feColorMatrix in="SourceAlpha" type="matrix" values="0 0 0 0 0 0 0 0 0 0 0 0 0 0 0 0 0 0 127 0" result="hardAlpha"/>
<feOffset dx="2" dy="-2"/>
<feComposite in2="hardAlpha" operator="out"/>
<feColorMatrix type="matrix" values="0 0 0 0 1 0 0 0 0 1 0 0 0 0 1 0 0 0 1 0"/>
<feBlend mode="normal" in2="BackgroundImageFix" result="effect1_dropShadow_21_277"/>
<feBlend mode="normal" in="SourceGraphic" in2="effect1_dropShadow_21_277" result="shape"/>
</filter>
<filter id="filter5_d_21_277" x="19.5562" y="465.277" width="18.6636" height="17.2222" filterUnits="userSpaceOnUse" color-interpolation-filters="sRGB">
<feFlood flood-opacity="0" result="BackgroundImageFix"/>
<feColorMatrix in="SourceAlpha" type="matrix" values="0 0 0 0 0 0 0 0 0 0 0 0 0 0 0 0 0 0 127 0" result="hardAlpha"/>
<feOffset dx="-2" dy="-2"/>
<feComposite in2="hardAlpha" operator="out"/>
<feColorMatrix type="matrix" values="0 0 0 0 1 0 0 0 0 1 0 0 0 0 1 0 0 0 1 0"/>
<feBlend mode="normal" in2="BackgroundImageFix" result="effect1_dropShadow_21_277"/>
<feBlend mode="normal" in="SourceGraphic" in2="effect1_dropShadow_21_277" result="shape"/>
</filter>
</defs>
</svg>
