<svg width="148" height="716" viewBox="0 0 148 716" fill="none" xmlns="http://www.w3.org/2000/svg">
<rect x="15.9995" y="20" width="116" height="676" rx="58" stroke="#EE6916" stroke-width="4"/>
<circle cx="132" cy="69" r="6" fill="white" stroke="#EE6916" stroke-width="2"/>
<circle cx="132" cy="139" r="6" fill="white" stroke="#EE6916" stroke-width="2"/>
<circle cx="132" cy="209" r="6" fill="white" stroke="#EE6916" stroke-width="2"/>
<circle cx="132" cy="279" r="6" fill="white" stroke="#EE6916" stroke-width="2"/>
<g filter="url(#filter0_d_53_74)">
<path d="M124 354L132 362L140 354" stroke="#222222" stroke-width="4" stroke-linecap="round" stroke-linejoin="round" shape-rendering="crispEdges"/>
</g>
<circle cx="132" cy="437" r="6" fill="white" stroke="#EE6916" stroke-width="2"/>
<circle cx="132" cy="507" r="6" fill="white" stroke="#EE6916" stroke-width="2"/>
<circle cx="132" cy="577" r="6" fill="white" stroke="#EE6916" stroke-width="2"/>
<circle cx="132" cy="647" r="6" fill="white" stroke="#EE6916" stroke-width="2"/>
<rect x="55.9995" width="36" height="36" rx="18" fill="#00458C"/>
<path d="M79.3162 24.6L77.6662 17.0833L80.8745 13.875C82.2495 12.5 82.7078 10.6667 82.2495 9.75C81.3328 9.29167 79.4995 9.75 78.1245 11.125L74.9162 14.3333L67.3995 12.6833C66.9412 12.5917 66.5745 12.775 66.3912 13.1417L66.1162 13.6C65.9328 14.0583 66.0245 14.5167 66.3912 14.7917L71.2495 18L69.4162 20.75H66.6662L65.7495 21.6667L68.4995 23.5L70.3328 26.25L71.2495 25.3333V22.5833L73.9995 20.75L77.2078 25.6083C77.4828 25.975 77.9412 26.0667 78.3995 25.8833L78.8578 25.7C79.2245 25.425 79.4078 25.0583 79.3162 24.6Z" stroke="white" stroke-width="2" stroke-linecap="round" stroke-linejoin="round"/>
<rect x="55.9995" y="680" width="36" height="36" rx="18" fill="#0054A6"/>
<path d="M79.4996 689.75H68.4996C67.4871 689.75 66.6663 690.571 66.6663 691.583V702.583C66.6663 703.596 67.4871 704.417 68.4996 704.417H79.4996C80.5121 704.417 81.3329 703.596 81.3329 702.583V691.583C81.3329 690.571 80.5121 689.75 79.4996 689.75Z" stroke="white" stroke-width="2" stroke-linecap="round" stroke-linejoin="round"/>
<path d="M66.6663 697.083H81.3329" stroke="white" stroke-width="2" stroke-linecap="round" stroke-linejoin="round"/>
<path d="M73.9995 689.75V697.083" stroke="white" stroke-width="2" stroke-linecap="round" stroke-linejoin="round"/>
<path d="M70.3328 704.417L68.4995 707.167" stroke="white" stroke-width="2" stroke-linecap="round" stroke-linejoin="round"/>
<path d="M79.4996 707.167L77.6663 704.417" stroke="white" stroke-width="2" stroke-linecap="round" stroke-linejoin="round"/>
<path d="M70.3328 700.75H70.3428" stroke="white" stroke-width="2" stroke-linecap="round" stroke-linejoin="round"/>
<path d="M77.6663 700.75H77.6763" stroke="white" stroke-width="2" stroke-linecap="round" stroke-linejoin="round"/>
<g filter="url(#filter1_d_53_74)">
<path d="M115.799 666.142V677.456H127.112" stroke="#222222" stroke-width="4" stroke-linecap="round" stroke-linejoin="round" shape-rendering="crispEdges"/>
</g>
<g filter="url(#filter2_d_53_74)">
<path d="M108.142 41.4558H119.455V30.1421" stroke="#222222" stroke-width="4" stroke-linecap="round" stroke-linejoin="round" shape-rendering="crispEdges"/>
</g>
<g filter="url(#filter3_d_53_74)">
<path d="M31.4554 49.1127V37.7989H20.1417" stroke="#222222" stroke-width="4" stroke-linecap="round" stroke-linejoin="round" shape-rendering="crispEdges"/>
</g>
<g filter="url(#filter4_d_53_74)">
<path d="M38.2191 673.719L26.9976 672.277L25.5559 683.499" stroke="#222222" stroke-width="4" stroke-linecap="round" stroke-linejoin="round" shape-rendering="crispEdges"/>
</g>
<circle cx="15.9995" cy="69" r="6" fill="white" stroke="#EE6916" stroke-width="2"/>
<circle cx="15.9995" cy="139" r="6" fill="white" stroke="#EE6916" stroke-width="2"/>
<circle cx="15.9995" cy="209" r="6" fill="white" stroke="#EE6916" stroke-width="2"/>
<g filter="url(#filter5_d_53_74)">
<path d="M24 362L16 354L8 362" stroke="#222222" stroke-width="4" stroke-linecap="round" stroke-linejoin="round" shape-rendering="crispEdges"/>
</g>
<defs>
<filter id="filter0_d_53_74" x="122" y="352" width="20" height="14" filterUnits="userSpaceOnUse" color-interpolation-filters="sRGB">
<feFlood flood-opacity="0" result="BackgroundImageFix"/>
<feColorMatrix in="SourceAlpha" type="matrix" values="0 0 0 0 0 0 0 0 0 0 0 0 0 0 0 0 0 0 127 0" result="hardAlpha"/>
<feOffset dy="2"/>
<feComposite in2="hardAlpha" operator="out"/>
<feColorMatrix type="matrix" values="0 0 0 0 1 0 0 0 0 1 0 0 0 0 1 0 0 0 1 0"/>
<feBlend mode="normal" in2="BackgroundImageFix" result="effect1_dropShadow_53_74"/>
<feBlend mode="normal" in="SourceGraphic" in2="effect1_dropShadow_53_74" result="shape"/>
</filter>
<filter id="filter1_d_53_74" x="111.799" y="664.142" width="17.3137" height="17.3135" filterUnits="userSpaceOnUse" color-interpolation-filters="sRGB">
<feFlood flood-opacity="0" result="BackgroundImageFix"/>
<feColorMatrix in="SourceAlpha" type="matrix" values="0 0 0 0 0 0 0 0 0 0 0 0 0 0 0 0 0 0 127 0" result="hardAlpha"/>
<feOffset dx="-2" dy="2"/>
<feComposite in2="hardAlpha" operator="out"/>
<feColorMatrix type="matrix" values="0 0 0 0 1 0 0 0 0 1 0 0 0 0 1 0 0 0 1 0"/>
<feBlend mode="normal" in2="BackgroundImageFix" result="effect1_dropShadow_53_74"/>
<feBlend mode="normal" in="SourceGraphic" in2="effect1_dropShadow_53_74" result="shape"/>
</filter>
<filter id="filter2_d_53_74" x="106.142" y="28.1421" width="17.3137" height="17.3137" filterUnits="userSpaceOnUse" color-interpolation-filters="sRGB">
<feFlood flood-opacity="0" result="BackgroundImageFix"/>
<feColorMatrix in="SourceAlpha" type="matrix" values="0 0 0 0 0 0 0 0 0 0 0 0 0 0 0 0 0 0 127 0" result="hardAlpha"/>
<feOffset dx="2" dy="2"/>
<feComposite in2="hardAlpha" operator="out"/>
<feColorMatrix type="matrix" values="0 0 0 0 1 0 0 0 0 1 0 0 0 0 1 0 0 0 1 0"/>
<feBlend mode="normal" in2="BackgroundImageFix" result="effect1_dropShadow_53_74"/>
<feBlend mode="normal" in="SourceGraphic" in2="effect1_dropShadow_53_74" result="shape"/>
</filter>
<filter id="filter3_d_53_74" x="18.1418" y="33.7988" width="17.3135" height="17.3137" filterUnits="userSpaceOnUse" color-interpolation-filters="sRGB">
<feFlood flood-opacity="0" result="BackgroundImageFix"/>
<feColorMatrix in="SourceAlpha" type="matrix" values="0 0 0 0 0 0 0 0 0 0 0 0 0 0 0 0 0 0 127 0" result="hardAlpha"/>
<feOffset dx="2" dy="-2"/>
<feComposite in2="hardAlpha" operator="out"/>
<feColorMatrix type="matrix" values="0 0 0 0 1 0 0 0 0 1 0 0 0 0 1 0 0 0 1 0"/>
<feBlend mode="normal" in2="BackgroundImageFix" result="effect1_dropShadow_53_74"/>
<feBlend mode="normal" in="SourceGraphic" in2="effect1_dropShadow_53_74" result="shape"/>
</filter>
<filter id="filter4_d_53_74" x="21.5557" y="668.277" width="18.6636" height="17.2222" filterUnits="userSpaceOnUse" color-interpolation-filters="sRGB">
<feFlood flood-opacity="0" result="BackgroundImageFix"/>
<feColorMatrix in="SourceAlpha" type="matrix" values="0 0 0 0 0 0 0 0 0 0 0 0 0 0 0 0 0 0 127 0" result="hardAlpha"/>
<feOffset dx="-2" dy="-2"/>
<feComposite in2="hardAlpha" operator="out"/>
<feColorMatrix type="matrix" values="0 0 0 0 1 0 0 0 0 1 0 0 0 0 1 0 0 0 1 0"/>
<feBlend mode="normal" in2="BackgroundImageFix" result="effect1_dropShadow_53_74"/>
<feBlend mode="normal" in="SourceGraphic" in2="effect1_dropShadow_53_74" result="shape"/>
</filter>
<filter id="filter5_d_53_74" x="6" y="350" width="20" height="14" filterUnits="userSpaceOnUse" color-interpolation-filters="sRGB">
<feFlood flood-opacity="0" result="BackgroundImageFix"/>
<feColorMatrix in="SourceAlpha" type="matrix" values="0 0 0 0 0 0 0 0 0 0 0 0 0 0 0 0 0 0 127 0" result="hardAlpha"/>
<feOffset dy="-2"/>
<feComposite in2="hardAlpha" operator="out"/>
<feColorMatrix type="matrix" values="0 0 0 0 1 0 0 0 0 1 0 0 0 0 1 0 0 0 1 0"/>
<feBlend mode="normal" in2="BackgroundImageFix" result="effect1_dropShadow_53_74"/>
<feBlend mode="normal" in="SourceGraphic" in2="effect1_dropShadow_53_74" result="shape"/>
</filter>
</defs>
</svg>
