<svg width="36" height="288" viewBox="0 0 36 288" fill="none" xmlns="http://www.w3.org/2000/svg">
<rect width="36" height="36" rx="18" fill="#00458C"/>
<path d="M23.3167 24.6L21.6667 17.0833L24.875 13.875C26.25 12.5 26.7083 10.6667 26.25 9.75C25.3333 9.29167 23.5 9.75 22.125 11.125L18.9167 14.3333L11.4 12.6833C10.9417 12.5917 10.575 12.775 10.3917 13.1417L10.1167 13.6C9.93333 14.0583 10.025 14.5167 10.3917 14.7917L15.25 18L13.4167 20.75H10.6667L9.75 21.6667L12.5 23.5L14.3333 26.25L15.25 25.3333V22.5833L18 20.75L21.2083 25.6083C21.4833 25.975 21.9417 26.0667 22.4 25.8833L22.8583 25.7C23.225 25.425 23.4083 25.0583 23.3167 24.6Z" stroke="white" stroke-width="2" stroke-linecap="round" stroke-linejoin="round"/>
<rect x="16.5" y="36" width="3" height="13" fill="#EE6916"/>
<circle cx="18" cy="54" r="4.5" fill="white" stroke="#EE6916"/>
<rect x="16.5" y="59" width="3" height="13" fill="#EE6916"/>
<rect x="16.5" y="72" width="3" height="13" fill="#EE6916"/>
<circle cx="18" cy="90" r="4.5" fill="white" stroke="#EE6916"/>
<rect x="16.5" y="95" width="3" height="13" fill="#EE6916"/>
<rect x="16.5" y="108" width="3" height="13" fill="#EE6916"/>
<circle cx="18" cy="126" r="4.5" fill="white" stroke="#EE6916"/>
<rect x="16.5" y="131" width="3" height="13" fill="#EE6916"/>
<rect x="16.5" y="144" width="3" height="13" fill="#EE6916"/>
<circle cx="18" cy="162" r="4.5" fill="white" stroke="#EE6916"/>
<rect x="16.5" y="167" width="3" height="13" fill="#EE6916"/>
<rect x="16.5" y="180" width="3" height="13" fill="#EE6916"/>
<circle cx="18" cy="198" r="4.5" fill="white" stroke="#EE6916"/>
<rect x="16.5" y="203" width="3" height="13" fill="#EE6916"/>
<rect x="16.5" y="216" width="3" height="13" fill="#EE6916"/>
<circle cx="18" cy="234" r="4.5" fill="white" stroke="#EE6916"/>
<rect x="16.5" y="239" width="3" height="13" fill="#EE6916"/>
<g clip-path="url(#clip0_22_529)">
<path d="M32 266.6C32 275.088 22.3067 283.928 19.0517 286.659C18.7485 286.88 18.3794 287 18 287C17.6206 287 17.2515 286.88 16.9483 286.659C13.6933 283.928 4 275.088 4 266.6C4 262.993 5.475 259.534 8.10051 256.983C10.726 254.433 14.287 253 18 253C21.713 253 25.274 254.433 27.8995 256.983C30.525 259.534 32 262.993 32 266.6Z" fill="#D81E37" stroke="#D81E37" stroke-width="2" stroke-linecap="round" stroke-linejoin="round"/>
<path d="M16.5586 266.428V267.531H14.0098V269.309H17.4277V270.451H9.23438V269.309H12.623V267.531H10.1719V263.078H16.5V264.191H11.5781V266.428H16.5586ZM22.9541 263.361V264.465H21.2159C21.2452 265.314 21.8116 266.223 23.2764 266.594L22.6319 267.707C21.626 267.443 20.9375 266.887 20.5323 266.184C20.1368 266.955 19.4483 267.556 18.4131 267.834L17.7393 266.75C19.1993 266.359 19.7803 265.383 19.8096 264.465H18.0811V263.361H19.8096V262.453H21.2256V263.361H22.9541ZM24.9756 262.473V264.631H26.1377V265.803H24.9756V267.98H23.5694V262.473H24.9756ZM24.9756 268.312V271.447H23.5694V269.426H18.8916V268.312H24.9756Z" fill="white"/>
</g>
<defs>
<clipPath id="clip0_22_529">
<rect y="252" width="36" height="36" rx="4" fill="white"/>
</clipPath>
</defs>
</svg>
