<svg width="67" height="13" viewBox="0 0 67 13" fill="none" xmlns="http://www.w3.org/2000/svg">
<g clip-path="url(#clip0_1_19)">
<path d="M0.00184147 10.8263V0.974052C-0.0357024 0.373254 0.30812 0.0479042 1.03133 0H3.34522C3.81551 0 4.0961 0.301397 4.18107 0.91018V7.33733C4.18107 7.81238 4.21466 8.13772 4.27789 8.30938C4.34112 8.48303 4.54465 8.33333 4.88847 7.85429L13.1797 0H18.1948C18.7896 0.0279441 18.8528 0.307385 18.3865 0.844311L13.5572 6.01597L10.6248 8.93812L8.83255 10.8842C7.3387 12.2954 5.87252 13.002 4.43795 13.002H2.63782C0.881158 13 0.00184147 12.2754 0.00184147 10.8263Z" fill="#E41D39"/>
<path d="M14.1106 7.13174L14.7132 7.69262L19.4932 12.1557C19.9595 12.6926 19.8963 12.9741 19.3015 13.002H14.2864L12.2136 11.0379L11.1782 10.0559L14.1106 7.13374V7.13174Z" fill="#F28521"/>
<path d="M25.8578 0C26.4151 0.215569 26.7372 0.626747 26.8221 1.23154V11.8323C26.7372 12.481 26.4151 12.8703 25.8578 13H22.6429C22.2042 12.8483 21.8841 12.4591 21.6786 11.8323V1.1018C21.9098 0.516966 22.2517 0.149701 22.7081 0H25.8578Z" fill="#E41D39"/>
<path d="M35.2438 3.11577C34.4297 3.11577 34.0227 3.52894 34.0227 4.3513V8.6507C34.0227 9.4511 34.3447 9.84032 34.9869 9.82036H46.1078C46.6236 9.82036 46.8785 10.0579 46.8785 10.5329V12.2056C46.8785 12.7345 46.5998 13 46.0426 13H31.4499C29.9383 12.8483 29.0827 12.0699 28.8772 10.6607V2.27345C29.1084 0.91018 30.0509 0.151697 31.7068 0H46.1711C46.6413 0 46.8765 0.237525 46.8765 0.714571V2.27345C46.8765 2.83633 46.6413 3.11577 46.1711 3.11577H35.2418H35.2438Z" fill="#E41D39"/>
<path d="M55.3653 3.11577C54.5512 3.11577 54.1442 3.52894 54.1442 4.3513V8.6507C54.1442 9.4511 54.4643 9.84032 55.1085 9.82036H66.2294C66.7451 9.82036 67 10.0579 67 10.5329V12.2056C67 12.7345 66.7214 13 66.1622 13H51.5714C50.0598 12.8483 49.2022 12.0699 49.0007 10.6607V2.27345C49.2319 0.91018 50.1744 0.151697 51.8283 0H66.2926C66.7648 0 67 0.237525 67 0.714571V2.27345C67 2.83633 66.7648 3.11577 66.2926 3.11577H55.3634H55.3653Z" fill="#E41D39"/>
</g>
<defs>
<clipPath id="clip0_1_19">
<rect width="67" height="13" fill="white"/>
</clipPath>
</defs>
</svg>
